# xmcd
#
# Track frame offsets:
#	150
#	10008
#	20413
#	32659
#	42262
#	53431
#	65438
#	75165
#	86179
#	97266
#	111285
#	125438
#	136928
#	149310
#	162283
#	174541
#	190710
#	202743
#	214016
#	225271
#
# Disc length: 3133 seconds
#
# Revision: 3
# Processed by: cddbd v1.5.1PL2 Copyright (c) Steve Scherf et al.
# Submitted via: EasyCDDAExtractor 9.0.0.1
#
DISCID=fb0c3b14
DTITLE=Brenda Lee - Anthology, Vol. 1-2 (1956-1980) - Disc 1
DYEAR=1991
DGENRE=Country
TTITLE0=Jambalaya ( On The Bayou )
TTITLE1=Bigelow 6-200
TTITLE2=One Step At A Time
TTITLE3=Dynamite
TTITLE4=Little Jonah ( Rock On Your Steel Guitar )
TTITLE5=Let's Jump The Broomstick
TTITLE6=Rockin' Around The Christmas Tree
TTITLE7=Bill Bailey, Won't You Please Come Home
TTITLE8=Sweet Nothin's
TTITLE9=Weep No More My Baby
TTITLE10=I Want To Be Wanted ( Per Tutta La Vita )
TTITLE11=That's All You Gotta Do
TTITLE12=I'm Sorry
TTITLE13=Emotions
TTITLE14=If You Love Me ( Really Love Me )
TTITLE15=You Can Depend On Me
TTITLE16=Kansas City
TTITLE17=Dum Dum
TTITLE18=Fool 1
TTITLE19=So Deep
EXTD=
EXTT0=
EXTT1=
EXTT2=
EXTT3=
EXTT4=
EXTT5=
EXTT6=
EXTT7=
EXTT8=
EXTT9=
EXTT10=
EXTT11=
EXTT12=
EXTT13=
EXTT14=
EXTT15=
EXTT16=
EXTT17=
EXTT18=
EXTT19=
PLAYORDER=
